<?xml version="1.0" encoding="iso-8859-1"?>
<!-- Generator: Adobe Illustrator 25.1.0, SVG Export Plug-In . SVG Version: 6.00 Build 0)  -->
<svg version="1.1" id="Layer_1" xmlns="http://www.w3.org/2000/svg" xmlns:xlink="http://www.w3.org/1999/xlink" x="0px" y="0px"
	 width="642.143px" height="325.295px" viewBox="0 0 642.143 325.295" enable-background="new 0 0 642.143 325.295"
	 xml:space="preserve">
<path fill="#C25E28" d="M636.337,2.96l0.018-0.005c-23.094-6.278-51.062-1.619-73.548,5.27
	c-42.96,13.781-79.629,42.959-119.547,63.828c-21.076,8.915-50.055,10.739-69.505-1.42c-4.659-3.307-13.101-0.945-13.101-0.945
	c-2.701-2.024-5.728-2.795-9.39-1.488c-9.726,7.096-19.859-3.848-30.186,1.826c-10.33-5.674-20.46,5.27-30.187-1.826
	c-3.665-1.308-6.689-0.536-9.39,1.488c0,0-8.448-2.362-13.106,0.945c-19.447,12.159-48.423,10.335-69.497,1.42
	C158.976,51.183,122.307,22.005,79.351,8.225C56.86,1.336,28.894-3.323,5.797,2.955C2.757,4.981-0.691,8.631,0.12,13.088
	c1.622,2.635,3.246,6.283,6.689,6.892c82.674-12.361,127.247,69.702,196.547,91.382c0.134,0.879-3.918,4.254-8.311,6.619
	c-9.792,5.406-24.315,3.309-25.326,16.683c2.632,8.311,12.763,11.35,20.059,14.589c17.224,9.733,37.896,1.627,53.493-6.278
	c1.822-1.826,4.863-0.813,6.278,1.013c-1.215,37.489,27.357,62.413,32.624,97.263c3.041,16.211-7.091,28.161-8.306,43.361
	c-0.134,5.608,4.254,1.895,6.619,20.465c1.015,3.378,9.458,12.836,17.09,16.817c7.045,2.776,15.21,3.584,23.502,3.367
	c8.289,0.217,16.454-0.592,23.499-3.367c7.632-3.982,16.077-13.44,17.083-16.817c2.372-18.57,6.76-14.857,6.626-20.465
	c-1.218-15.2-11.348-27.15-8.309-43.361c5.27-34.85,33.839-59.774,32.622-97.263c1.422-1.827,4.464-2.839,6.285-1.013
	c15.597,7.905,36.264,16.011,53.493,6.278c7.294-3.239,17.422-6.278,20.06-14.589c-1.015-13.374-15.541-11.277-25.327-16.683
	c-4.396-2.365-8.448-5.74-8.316-6.619c69.302-21.68,113.881-103.743,196.551-91.382c3.443-0.609,5.066-4.257,6.685-6.892
	C642.816,8.636,639.373,4.986,636.337,2.96z"/>
<g>
</g>
<g>
</g>
<g>
</g>
<g>
</g>
<g>
</g>
</svg>
